<svg xmlns="http://www.w3.org/2000/svg" width="16.917" height="20" viewBox="0 0 16.917 20">
  <g id="share-iconshare" transform="translate(-136.291 -66.255)">
    <path id="Path_19" data-name="Path 19" d="M332.314,70.649l2.867-2.867,0,11.291a.448.448,0,0,0,.448.447h0a.448.448,0,0,0,.448-.448l0-11.288,2.865,2.865a.448.448,0,1,0,.633-.633l-3.62-3.62a.446.446,0,0,0-.326-.141h0a.448.448,0,0,0-.316.131l-3.63,3.63a.448.448,0,0,0,.633.633Z" transform="translate(-190.9)" fill="#fff"/>
    <path id="Path_20" data-name="Path 20" d="M150.753,315.086h-3.128a.446.446,0,1,0,0,.892h3.128a1.563,1.563,0,0,1,1.562,1.561v9.511a1.563,1.563,0,0,1-1.562,1.561H138.746a1.563,1.563,0,0,1-1.562-1.561v-9.511a1.563,1.563,0,0,1,1.563-1.561h3.221a.446.446,0,1,0,0-.892h-3.221a2.457,2.457,0,0,0-2.455,2.453v9.511a2.457,2.457,0,0,0,2.455,2.453h12.006a2.457,2.457,0,0,0,2.455-2.453v-9.511A2.457,2.457,0,0,0,150.753,315.086Z" transform="translate(0 -243.248)" fill="#fff"/>
  </g>
</svg>
