<svg xmlns="http://www.w3.org/2000/svg" width="32.529" height="45.919" viewBox="0 0 32.529 45.919">
  <path id="arrow" d="M43.934,142.226a.569.569,0,0,0-.205-.331l-10.242-9.041a.775.775,0,0,0-1.026,0,.576.576,0,0,0,0,.905l9.038,7.977H22.715c-11.724,0-21.25-8.408-21.25-18.757a.655.655,0,0,0-.733-.647.654.654,0,0,0-.733.645c0,11,10.258,20.05,22.715,20.05H41.3l-8.841,7.8a.576.576,0,0,0,0,.905.974.974,0,0,0,.586.129h.44l10.106-8.92a.6.6,0,0,0,.372-.565l0-.012A.563.563,0,0,0,43.934,142.226Z" transform="matrix(0.07, -0.998, 0.998, 0.07, -122.036, 35.325)" fill="#fff"/>
</svg>
